<?xml version="1.0" encoding="utf-8"?>
<!-- Generator: Adobe Illustrator 23.1.1, SVG Export Plug-In . SVG Version: 6.00 Build 0)  -->
<svg version="1.1" id="Layer_1" xmlns="http://www.w3.org/2000/svg" xmlns:xlink="http://www.w3.org/1999/xlink" x="0px" y="0px"
	 viewBox="0 0 1190.55 841.89" style="enable-background:new 0 0 1190.55 841.89;" xml:space="preserve">
<style type="text/css">
	.st0{fill:#D7162F;}
	.st1{fill:none;stroke:#D7162F;stroke-width:15;stroke-miterlimit:10;}
</style>
<polygon class="st0" points="878.93,359.11 790.94,359.11 790.94,374.11 827.44,374.11 827.44,436.58 842.44,436.58 842.44,374.11 
	878.93,374.11 "/>
<polygon class="st0" points="632.84,421.58 632.84,359.11 617.84,359.11 617.84,421.58 617.83,421.58 617.83,436.58 699.07,436.58 
	699.07,421.58 "/>
<path class="st0" d="M969.9,374.09v-14.98h-86.84v55.98h0.02c0.43,12.69,10.37,21.47,24.49,21.47h62.33v-14.98h-62.33
	c-2.86,0-9.51-0.72-9.51-7.35v-7.01h58.84v-14.68h-58.84v-18.46H969.9z"/>
<path class="st0" d="M272.34,387.37h-15c0,1.75,0.08,3.47,0.21,5.16h-29.18v-18.42h33.74c15.34,0,31.74,8.34,31.74,31.74h15
	c0-14.18-4.8-26.15-13.87-34.63c-8.36-7.81-20.03-12.11-32.87-12.11h-48.74v77.46h15v-29.35h32.47c2.44,6.32,6.14,11.87,11.03,16.44
	c8.76,8.18,20.99,12.69,34.45,12.69v-15C285.68,421.35,272.34,408.01,272.34,387.37z"/>
<g>
	<path class="st1" d="M786.81,408.08"/>
</g>
<path class="st0" d="M400.9,374.08v-14.97h-87.84v55.94h0.02c0.43,12.68,10.37,21.46,24.49,21.46h63.33v-14.97h-63.33
	c-2.86,0-9.51-0.72-9.51-7.34v-7.4h59.84v-14.67h-59.84v-18.05H400.9z"/>
<path class="st0" d="M459.52,359.12L459.52,359.12l-54.27,0v77.46h54.08c21.9,0,39.71-17.42,39.71-38.83
	C499.05,376.5,481.33,359.22,459.52,359.12z M459.33,421.58h-39.08v-47.46h39.08c13.63,0,24.71,10.6,24.71,23.63
	C484.05,410.89,472.96,421.58,459.33,421.58z"/>
<path class="st0" d="M581.42,359.16v-0.07h-57.68v77.48h15v-10.84h40.58c18.75,0,34-14.94,34-33.29
	C613.32,374.75,599.19,360.24,581.42,359.16z M579.31,410.74h-40.58v-36.65h40.58c10.48,0,19,8.23,19,18.35
	C598.32,402.53,589.79,410.74,579.31,410.74z"/>
<path class="st0" d="M782.16,371.22c-8.36-7.81-20.03-12.11-32.87-12.11h-46.74v77.48h15v-27.7h51.22v-14.7h-51.22v-20.09h31.74
	c15.34,0,31.74,8.34,31.74,31.74v30.73h15v-30.73C796.04,391.67,791.24,379.7,782.16,371.22z"/>
</svg>
