<svg xmlns="http://www.w3.org/2000/svg" viewBox="0 0 1190.55 841.89"><path d="M878.93 359.11h-87.99v15h36.5v62.47h15v-62.47h36.49zm-246.09 62.47v-62.47h-15v62.47h-.01v15h81.24v-15zm337.06-47.49v-14.98h-86.84v55.98h.02c.43 12.69 10.37 21.47 24.49 21.47h62.33v-14.98h-62.33c-2.86 0-9.51-.72-9.51-7.35v-7.01h58.84v-14.68h-58.84v-18.46h71.84zm-697.56 13.28h-15c0 1.75.08 3.47.21 5.16h-29.18v-18.42h33.74c15.34 0 31.74 8.34 31.74 31.74h15c0-14.18-4.8-26.15-13.87-34.63-8.36-7.81-20.03-12.11-32.87-12.11h-48.74v77.46h15v-29.35h32.47c2.44 6.32 6.14 11.87 11.03 16.44 8.76 8.18 20.99 12.69 34.45 12.69v-15c-20.64 0-33.98-13.34-33.98-33.98zm128.56-13.29v-14.97h-87.84v55.94h.02c.43 12.68 10.37 21.46 24.49 21.46h63.33v-14.97h-63.33c-2.86 0-9.51-.72-9.51-7.34v-7.4h59.84v-14.67h-59.84v-18.05h72.84zm58.62-14.96h-54.27v77.46h54.08c21.9 0 39.71-17.42 39.71-38.83.01-21.25-17.71-38.53-39.52-38.63zm-.19 62.46h-39.08v-47.46h39.08c13.63 0 24.71 10.6 24.71 23.63.01 13.14-11.08 23.83-24.71 23.83zm122.09-62.42v-.07h-57.68v77.48h15v-10.84h40.58c18.75 0 34-14.94 34-33.29 0-17.69-14.13-32.2-31.9-33.28zm-2.11 51.58h-40.58v-36.65h40.58c10.48 0 19 8.23 19 18.35.01 10.09-8.52 18.3-19 18.3zm202.85-39.52c-8.36-7.81-20.03-12.11-32.87-12.11h-46.74v77.48h15v-27.7h51.22v-14.7h-51.22V374.1h31.74c15.34 0 31.74 8.34 31.74 31.74v30.73h15v-30.73c.01-14.17-4.79-26.14-13.87-34.62z" fill="#d7162f"/></svg>